<svg width="561" height="120" viewBox="0 0 561 120" fill="none" xmlns="http://www.w3.org/2000/svg">
<path d="M384.411 91.2H371.391H355.691C350.051 91.2 345.011 89.84 340.571 87.12C336.131 84.4 332.631 80.7 330.071 76.02C327.551 71.3 326.291 65.96 326.291 60C326.291 54.04 327.551 48.72 330.071 44.04C332.631 39.32 336.131 35.6 340.571 32.88C345.011 30.16 350.051 28.8 355.691 28.8H369.651V0H384.411V91.2ZM358.931 77.94H369.651V60.96V42H358.931C355.571 42 352.571 42.8 349.931 44.4C347.291 45.96 345.211 48.1 343.691 50.82C342.171 53.5 341.411 56.54 341.411 59.94C341.411 63.38 342.171 66.46 343.691 69.18C345.211 71.9 347.291 74.04 349.931 75.6C352.571 77.16 355.571 77.94 358.931 77.94Z" fill="#3D3D3D"/>
<path d="M428.78 91.2H441.8H457.5C463.14 91.2 468.18 89.84 472.62 87.12C477.06 84.4 480.56 80.7 483.12 76.02C485.64 71.3 486.9 65.96 486.9 60C486.9 54.04 485.64 48.72 483.12 44.04C480.56 39.32 477.06 35.6 472.62 32.88C468.18 30.16 463.14 28.8 457.5 28.8H443.54V0H428.78V91.2ZM454.26 77.94H443.54V60.96V42H454.26C457.62 42 460.62 42.8 463.26 44.4C465.9 45.96 467.98 48.1 469.5 50.82C471.02 53.5 471.78 56.54 471.78 59.94C471.78 63.38 471.02 66.46 469.5 69.18C467.98 71.9 465.9 74.04 463.26 75.6C460.62 77.16 457.62 77.94 454.26 77.94Z" fill="#3D3D3D"/>
<path d="M313.495 83.0504C306.015 88.4904 297.835 91.2104 288.955 91.2104C282.515 91.2104 276.735 89.8104 271.615 87.0104C266.495 84.2104 262.435 80.3904 259.435 75.5504C256.475 70.6704 254.995 65.1904 254.995 59.1104C254.995 53.3104 256.335 48.1304 259.015 43.5704C261.735 39.0104 265.435 35.4104 270.115 32.7704C274.835 30.1304 280.155 28.8104 286.075 28.8104C292.235 28.8104 297.635 30.2704 302.275 33.1904C306.955 36.0704 310.595 40.0904 313.195 45.2504C315.795 50.3704 317.095 56.3304 317.095 63.1304V65.0504H270.895C271.615 67.7704 272.875 70.1704 274.675 72.2504C276.515 74.3304 278.795 75.9504 281.515 77.1104C284.235 78.2704 287.295 78.8504 290.695 78.8504C297.095 78.8504 303.015 76.7704 308.455 72.6104L313.495 83.0504ZM270.295 56.4104H303.415C303.095 53.4104 302.175 50.7904 300.655 48.5504C299.175 46.3104 297.235 44.5704 294.835 43.3304C292.475 42.0504 289.815 41.4104 286.855 41.4104C283.855 41.4104 281.175 42.0504 278.815 43.3304C276.455 44.6104 274.535 46.3904 273.055 48.6704C271.575 50.9104 270.655 53.4904 270.295 56.4104Z" fill="#3D3D3D"/>
<path d="M249.311 88.44C244.911 90.28 240.651 91.2 236.531 91.2C232.331 91.2 228.631 90.3 225.431 88.5C222.271 86.7 219.791 84.2 217.991 81C216.231 77.76 215.351 74 215.351 69.72V43.2H204.851V30H216.131V0H230.111V30H247.211V43.2H230.111V67.02C230.111 70.42 231.031 73.1 232.871 75.06C234.751 77.02 237.091 78 239.891 78C242.371 78 244.831 77.24 247.271 75.72L249.311 88.44Z" fill="#3D3D3D"/>
<path d="M197.487 90.0104H182.727V58.3304C182.727 53.3304 181.447 49.3904 178.887 46.5104C176.327 43.5904 172.867 42.1304 168.507 42.1304H153.627C153.627 42.1304 153.627 53.8904 153.627 59.0504C153.627 64.2104 153.627 90.0104 153.627 90.0104H138.867V28.8104H151.047H172.527C180.287 28.8104 186.387 31.1704 190.827 35.8904C195.267 40.6104 197.487 47.1304 197.487 55.4504V90.0104Z" fill="#3D3D3D"/>
<path d="M128.188 91.2042H116.008H94.5279C86.8079 91.2042 80.7079 88.8442 76.2279 84.1242C71.7879 79.3642 69.5679 72.8242 69.5679 64.5042V30.0042H84.3279V61.6842C84.3279 66.6842 85.5879 70.6442 88.1079 73.5642C90.6679 76.4442 94.1279 77.8842 98.4879 77.8842H113.428V60.9642V30.0042H128.188V91.2042Z" fill="#3D3D3D"/>
<path d="M0 90V0H14.76V28.8C14.76 28.8 25.62 28.8 34.14 28.8C41.82 28.8 47.82 31.16 52.14 35.88C56.46 40.56 58.62 47.08 58.62 55.44V90H43.86V59.22C43.86 53.78 42.6 49.56 40.08 46.56C37.56 43.52 34.02 42 29.46 42H14.76V59.22V90H0Z" fill="#3D3D3D"/>
<path d="M523.218 120.004H507.436L519.916 89.7641L490.156 30.0042H506.776L526.936 72.9042L544.699 30.0042H560.476L523.218 120.004Z" fill="#3D3D3D"/>
<path d="M401.436 89.1587C402.794 90.5187 404.596 91.1987 406.836 91.1987C409.036 91.1987 410.816 90.5187 412.176 89.1587C413.576 87.799 414.274 86.0187 414.274 83.8187C414.274 81.579 413.576 79.7787 412.176 78.4187C410.816 77.0187 409.036 76.3187 406.836 76.3187C404.596 76.3187 402.794 77.0187 401.436 78.4187C400.076 79.7787 399.396 81.579 399.396 83.8187C399.396 86.0187 400.076 87.799 401.436 89.1587Z" fill="#3D3D3D"/>
</svg>
