<svg width="761" height="160" viewBox="0 0 761 160" fill="none" xmlns="http://www.w3.org/2000/svg">
<path d="M160 0H0V160H160V0Z" fill="#298673"/>
<path fill-rule="evenodd" clip-rule="evenodd" d="M74.9999 20.002H84.9999V35.2767C105.858 37.5825 122.419 54.144 124.725 75.002H140V85.002H124.725C122.419 105.86 105.858 122.421 84.9999 124.727V140.002H74.9999V124.727C54.1419 122.421 37.5804 105.86 35.2746 85.002H19.9999V75.002H35.2746C37.5804 54.144 54.1419 37.5825 74.9999 35.2767V20.002ZM74.9999 45.3565C59.6714 47.549 47.5469 59.6735 45.3544 75.002H74.9999V45.3565ZM45.3544 85.002C47.5469 100.33 59.6714 112.455 74.9999 114.647V85.002H45.3544ZM84.9999 114.647C100.328 112.455 112.453 100.33 114.645 85.002H84.9999V114.647ZM114.645 75.002C112.453 59.6735 100.328 47.549 84.9999 45.3565V75.002H114.645Z" fill="white"/>
<path d="M584.411 118.698H571.391H555.691C550.051 118.698 545.011 117.338 540.571 114.618C536.131 111.898 532.631 108.198 530.071 103.518C527.551 98.798 526.291 93.458 526.291 87.498C526.291 81.538 527.551 76.218 530.071 71.538C532.631 66.818 536.131 63.098 540.571 60.378C545.011 57.658 550.051 56.298 555.691 56.298H569.651V27.498H584.411V118.698ZM558.931 105.438H569.651V88.458V69.498H558.931C555.571 69.498 552.571 70.298 549.931 71.898C547.291 73.458 545.211 75.598 543.691 78.318C542.171 80.998 541.411 84.038 541.411 87.438C541.411 90.878 542.171 93.958 543.691 96.678C545.211 99.398 547.291 101.538 549.931 103.098C552.571 104.658 555.571 105.438 558.931 105.438Z" fill="#3D3D3D"/>
<path d="M628.779 118.698H641.799H657.499C663.139 118.698 668.179 117.338 672.619 114.618C677.059 111.898 680.559 108.198 683.119 103.518C685.639 98.798 686.899 93.458 686.899 87.498C686.899 81.538 685.639 76.218 683.119 71.538C680.559 66.818 677.059 63.098 672.619 60.378C668.179 57.658 663.139 56.298 657.499 56.298H643.539V27.498H628.779V118.698ZM654.259 105.438H643.539V88.458V69.498H654.259C657.619 69.498 660.619 70.298 663.259 71.898C665.899 73.458 667.979 75.598 669.499 78.318C671.019 80.998 671.779 84.038 671.779 87.438C671.779 90.878 671.019 93.958 669.499 96.678C667.979 99.398 665.899 101.538 663.259 103.098C660.619 104.658 657.619 105.438 654.259 105.438Z" fill="#3D3D3D"/>
<path d="M513.495 110.549C506.015 115.989 497.835 118.709 488.955 118.709C482.515 118.709 476.735 117.309 471.615 114.509C466.495 111.709 462.435 107.889 459.435 103.049C456.475 98.1686 454.995 92.6886 454.995 86.6086C454.995 80.8086 456.335 75.6286 459.015 71.0686C461.735 66.5086 465.435 62.9086 470.115 60.2686C474.835 57.6286 480.155 56.3086 486.075 56.3086C492.235 56.3086 497.635 57.7686 502.275 60.6886C506.955 63.5686 510.595 67.5886 513.195 72.7486C515.795 77.8686 517.095 83.8286 517.095 90.6286V92.5486H470.895C471.615 95.2686 472.875 97.6686 474.675 99.7486C476.515 101.829 478.795 103.449 481.515 104.609C484.235 105.769 487.295 106.349 490.695 106.349C497.095 106.349 503.015 104.269 508.455 100.109L513.495 110.549ZM470.295 83.9086H503.415C503.095 80.9086 502.175 78.2886 500.655 76.0486C499.175 73.8086 497.235 72.0686 494.835 70.8286C492.475 69.5486 489.815 68.9086 486.855 68.9086C483.855 68.9086 481.175 69.5486 478.815 70.8286C476.455 72.1086 474.535 73.8886 473.055 76.1686C471.575 78.4086 470.655 80.9886 470.295 83.9086Z" fill="#3D3D3D"/>
<path d="M449.31 115.938C444.91 117.778 440.65 118.698 436.53 118.698C432.33 118.698 428.63 117.798 425.43 115.998C422.27 114.198 419.79 111.698 417.99 108.498C416.23 105.258 415.35 101.498 415.35 97.218V70.698H404.85V57.498H416.13V27.498H430.11V57.498H447.21V70.698H430.11V94.518C430.11 97.918 431.03 100.598 432.87 102.558C434.75 104.518 437.09 105.498 439.89 105.498C442.37 105.498 444.83 104.738 447.27 103.218L449.31 115.938Z" fill="#3D3D3D"/>
<path d="M397.487 117.509H382.727V85.8286C382.727 80.8286 381.447 76.8886 378.887 74.0086C376.327 71.0886 372.867 69.6286 368.507 69.6286H353.627C353.627 69.6286 353.627 81.3886 353.627 86.5486C353.627 91.7086 353.627 117.509 353.627 117.509H338.867V56.3086H351.047H372.527C380.287 56.3086 386.387 58.6686 390.827 63.3886C395.267 68.1086 397.487 74.6286 397.487 82.9486V117.509Z" fill="#3D3D3D"/>
<path d="M328.188 118.702H316.008H294.528C286.808 118.702 280.708 116.342 276.228 111.622C271.788 106.862 269.568 100.322 269.568 92.002V57.502H284.328V89.182C284.328 94.182 285.588 98.142 288.108 101.062C290.668 103.942 294.128 105.382 298.488 105.382H313.428V88.462V57.502H328.188V118.702Z" fill="#3D3D3D"/>
<path d="M200 117.498V27.498H214.76V56.298C214.76 56.298 225.62 56.298 234.14 56.298C241.82 56.298 247.82 58.658 252.14 63.378C256.46 68.058 258.62 74.578 258.62 82.938V117.498H243.86V86.718C243.86 81.278 242.6 77.058 240.08 74.058C237.56 71.018 234.02 69.498 229.46 69.498H214.76V86.718V117.498H200Z" fill="#3D3D3D"/>
<path d="M723.218 147.502H707.436L719.916 117.262L690.156 57.502H706.776L726.936 100.402L744.698 57.502H760.476L723.218 147.502Z" fill="#3D3D3D"/>
<path d="M601.436 116.656C602.793 118.016 604.596 118.696 606.836 118.696C609.036 118.696 610.816 118.016 612.176 116.656C613.576 115.297 614.273 113.516 614.273 111.316C614.273 109.077 613.576 107.276 612.176 105.916C610.816 104.516 609.036 103.816 606.836 103.816C604.596 103.816 602.793 104.516 601.436 105.916C600.076 107.276 599.396 109.077 599.396 111.316C599.396 113.516 600.076 115.297 601.436 116.656Z" fill="#3D3D3D"/>
</svg>
