<svg width="32" height="32" viewBox="0 0 32 32" fill="none" xmlns="http://www.w3.org/2000/svg">
<path d="M28.4625 6.03665L21.9125 29.2742C21.8033 29.6676 21.5755 30.0179 21.2602 30.2774C20.9448 30.5368 20.5572 30.6928 20.15 30.7242H19.975C19.5983 30.7233 19.2295 30.6161 18.9111 30.4149C18.5926 30.2136 18.3375 29.9265 18.175 29.5867L13.7125 20.1617C13.6687 20.067 13.6548 19.9613 13.6727 19.8585C13.6906 19.7558 13.7394 19.6609 13.8125 19.5867L20.225 13.1742C20.3254 13.0832 20.4063 12.9728 20.4627 12.8496C20.5191 12.7265 20.55 12.5931 20.5533 12.4577C20.5566 12.3223 20.5324 12.1876 20.4821 12.0618C20.4318 11.936 20.3565 11.8218 20.2607 11.726C20.1649 11.6302 20.0507 11.5549 19.9249 11.5046C19.7991 11.4543 19.6644 11.4301 19.529 11.4334C19.3936 11.4367 19.2602 11.4676 19.1371 11.524C19.0139 11.5804 18.9035 11.6613 18.8125 11.7617L12.4 18.1867C12.3258 18.2598 12.2309 18.3086 12.1282 18.3265C12.0254 18.3444 11.9197 18.3305 11.825 18.2867L2.45004 13.8492C2.08311 13.6758 1.77505 13.3987 1.56399 13.0522C1.35292 12.7056 1.24812 12.3047 1.26254 11.8992C1.28467 11.4816 1.43792 11.0817 1.7005 10.7562C1.96307 10.4308 2.32159 10.1965 2.72504 10.0867L26.0125 3.52415C26.4198 3.40783 26.8536 3.42384 27.2512 3.56986C27.6488 3.71588 27.9898 3.98437 28.225 4.33665C28.3829 4.58699 28.4857 4.86802 28.5266 5.16111C28.5676 5.4542 28.5457 5.75265 28.4625 6.03665Z" fill="#298673"/>
</svg>
